<svg width="149" height="187" viewBox="0 0 149 187" fill="none" xmlns="http://www.w3.org/2000/svg">
<path d="M32.1875 119.997L31.1318 119.938C29.6523 119.856 27.5226 119.794 24.7354 119.752H24.7197C21.9391 119.669 19.0117 119.628 15.9375 119.628C9.90278 119.628 5.28228 119.731 2.06445 119.938L1 120.006V116.033L1.96875 116.003C5.97439 115.879 8.67846 115.383 10.2246 114.615C11.8141 113.782 12.657 112.802 12.9756 111.728C13.3637 110.369 13.5625 108.88 13.5625 107.253V72.5645C13.5625 70.7183 13.3407 69.2618 12.9365 68.1592L12.9307 68.1445L12.9268 68.1309C12.643 67.2797 11.8544 66.4874 10.2139 65.877L10.2061 65.874C8.61665 65.2686 5.9009 64.8545 1.95801 64.6885L1 64.6484V60.7041L2.10449 60.8203C3.64701 60.9827 5.65652 61.0855 8.1416 61.127H16.25C18.0704 61.127 19.7441 61.1066 21.2715 61.0654C22.8457 60.9825 24.2103 60.8999 25.3662 60.8174L25.6211 60.7988L25.8525 60.9053L130.688 108.783V73.3779C130.688 71.8391 130.4 70.4607 129.84 69.2285L129.835 69.2188C129.349 68.118 128.245 67.093 126.285 66.2305C124.38 65.3921 121.305 64.8549 116.962 64.6895L116 64.6523V60.7598L117.054 60.8164C118.583 60.8991 120.761 60.9822 123.592 61.0654L123.591 61.0664C126.415 61.1079 129.322 61.127 132.312 61.127C138.39 61.127 143.01 61.0236 146.186 60.8174L147.25 60.748V64.667L146.272 64.6895C142.652 64.7717 140.106 65.2675 138.518 66.0801C136.879 66.9184 135.899 67.9475 135.429 69.124C134.938 70.4121 134.688 71.827 134.688 73.3779V121.128H130.906L130.707 121.036L17.5625 69.0342V107.253C17.5625 108.827 17.779 110.287 18.2041 111.64C18.5411 112.672 19.4975 113.666 21.4004 114.522C23.2602 115.318 26.4929 115.837 31.2227 116.003L32.1875 116.037V119.997Z" fill="#B09566" stroke="#423C33" stroke-width="2"/>
<path d="M93.875 185.215L92.8066 185.143C90.9834 185.018 88.5048 184.923 85.3643 184.86H85.3438C82.2538 184.735 78.8888 184.672 75.249 184.672C71.4406 184.672 68.056 184.735 65.0938 184.86H65.0723C62.1 184.923 59.7258 185.018 57.9443 185.143L56.875 185.217V180.282L57.8057 180.218C61.4312 179.968 64.014 179.502 65.6299 178.867L65.6367 178.864C67.161 178.279 68.1377 177.248 68.6318 175.712C69.1726 173.966 69.4648 171.349 69.4648 167.797V18.3975C69.4648 14.7717 69.1705 12.1574 68.6318 10.4824C68.1377 8.9463 67.161 7.91541 65.6367 7.33008L65.6299 7.32715C64.014 6.69184 61.4312 6.22679 57.8057 5.97656L56.875 5.91309V1.07227L57.9443 1.14648C59.7316 1.27127 62.1067 1.39694 65.0723 1.52246L67.3799 1.56445C69.7659 1.5998 72.3889 1.61719 75.249 1.61719C78.8943 1.61719 82.2657 1.58529 85.3633 1.52246V1.52344C88.4977 1.39786 90.9775 1.27129 92.8066 1.14648L93.875 1.07422V5.91309L92.9443 5.97656C89.3206 6.22666 86.7123 6.69166 85.0498 7.33008C83.5257 7.9154 82.5498 8.94641 82.0557 10.4824C81.517 12.1574 81.2217 14.7717 81.2217 18.3975V167.797C81.2217 171.423 81.517 174.037 82.0557 175.712C82.5497 177.248 83.5256 178.279 85.0498 178.864C86.7123 179.503 89.3206 179.968 92.9443 180.218L93.875 180.282V185.215Z" fill="#B09566" stroke="#423C33" stroke-width="2"/>
<path d="M70.0195 142.036L68.9434 141.954C67.5217 141.845 65.5999 141.763 63.1719 141.708H63.1602L63.1484 141.707C60.732 141.597 57.8707 141.542 54.5625 141.542C51.3253 141.542 48.4629 141.597 45.9746 141.707L45.9639 141.708H45.9531C43.4537 141.763 41.4972 141.845 40.0762 141.954L39 142.036V137.455L39.9277 137.387C42.9331 137.168 45.0864 136.762 46.459 136.211C47.6883 135.719 48.4855 134.85 48.8936 133.526C49.3426 132.068 49.5908 129.783 49.5908 126.601V58.229C49.5908 55.1069 49.3254 52.856 48.8467 51.4058L48.8438 51.397L48.8408 51.3872C48.4328 50.0627 47.6355 49.1944 46.4062 48.7017L46.3691 48.686C45.0486 48.0949 42.9303 47.6617 39.9277 47.4429L39 47.3755V42.9175L40.0381 42.9575C41.4883 43.0129 43.4675 43.0959 45.9746 43.2065C48.4629 43.3164 51.3253 43.3716 54.5625 43.3716C57.8707 43.3716 60.732 43.3163 63.1484 43.2065C65.5854 43.0959 67.5306 43.013 68.9814 42.9575L70.0195 42.9175V47.3735L69.0947 47.4429C66.2023 47.6613 64.1329 48.0932 62.8086 48.686L62.7871 48.6958C61.6336 49.1809 60.8573 50.0438 60.4434 51.3872C59.994 52.8459 59.7461 55.1044 59.7461 58.229V89.3286C60.2406 89.2773 60.613 89.0242 62.2275 88.0688C63.882 87.0899 65.6602 85.6877 67.0039 83.7876L67.0107 83.7788C68.4739 81.7591 70.1544 79.2093 72.0527 76.1245L78.3535 65.8374L78.3555 65.8345C81.4214 60.8647 83.1365 57.2043 83.6279 54.7915C83.8688 53.6085 83.8263 52.6766 83.5811 51.9507C83.3416 51.2421 82.8854 50.6576 82.1592 50.189C80.5291 49.1372 77.7933 48.2251 73.8389 47.5122L73.0166 47.3638V43.0386H74.0166C75.846 43.0386 77.9527 43.1225 80.334 43.2896C82.6763 43.3988 85.0363 43.4536 87.4141 43.4536C89.9424 43.4536 92.2048 43.4263 94.2021 43.3716C96.2421 43.2613 98.088 43.1506 99.7393 43.0405L100.806 42.9692V47.3628L99.9844 47.5122C96.8514 48.0806 94.2651 49.543 92.1914 51.9155C90.053 54.4025 87.8287 57.5852 85.5205 61.4761L85.5186 61.479L69.8916 87.6147C71.3022 88.4227 72.5448 89.3354 73.665 90.3306L73.9355 90.5718C75.2854 91.8071 76.5674 93.48 77.791 95.5571H77.79C79.1301 97.7721 80.5973 100.777 82.1924 104.554L82.1973 104.567L90.7764 125.643C92.6757 130.161 94.348 133.111 95.7695 134.629C97.1394 136.093 99.0727 137.063 101.658 137.479L102.5 137.614V142.066L101.473 142.039C99.4168 141.983 97.3084 141.9 95.1475 141.789C93.0143 141.679 90.6484 141.624 88.0498 141.624C85.0241 141.624 82.5195 141.678 80.5322 141.788C78.5527 141.898 76.888 141.982 75.54 142.038L74.499 142.081V137.609L75.3457 137.478C78.4893 136.991 80.2826 136.07 81.0986 134.952C81.8539 133.916 81.9657 132.415 80.9434 130.167L80.9404 130.16L80.9365 130.152L73.1523 112.229L73.1504 112.224C70.9344 107.043 68.9837 103.178 67.3008 100.594L67.2959 100.586L67.291 100.578C65.7051 98.0409 63.3945 96.2543 62.0156 95.3149C61.2414 94.7876 60.8049 94.4514 60.376 94.2007C60.1199 94.0511 59.9271 93.9723 59.7461 93.937V126.601C59.7461 129.659 59.9911 131.922 60.4424 133.443C60.8553 134.783 61.634 135.681 62.7949 136.22C64.1316 136.765 66.2083 137.169 69.0947 137.387L70.0195 137.457V142.036Z" fill="#B09566" stroke="#423C33" stroke-width="2"/>
<path d="M69.1699 136.391L70.4648 136.488V143.073L68.8672 142.951C68.7375 142.941 68.6033 142.933 68.4648 142.924V136.329C68.6935 136.35 68.9284 136.372 69.1699 136.391Z" fill="#423C33"/>
<path d="M82.2217 68.9424L80.2217 72.2871V60.584C81.1456 58.8236 81.8038 57.3357 82.2217 56.1104V68.9424Z" fill="#423C33"/>
<path d="M70.4648 48.3418L69.1699 48.4404C68.9282 48.4587 68.6934 48.4808 68.4648 48.502V41.9766C68.6295 41.9701 68.7887 41.9639 68.9424 41.958L70.4648 41.8994V48.3418Z" fill="#423C33"/>
<path d="M68.4648 79.9033C69.0988 78.943 69.7656 77.9043 70.4648 76.7861V88.6445L68.4648 87.9844V79.9033Z" fill="#423C33"/>
<path d="M71.0195 136.53V143.116L70.4648 143.073V136.488L71.0195 136.53Z" fill="#B09566"/>
<path d="M71.0195 48.3008L70.4648 48.3418V41.8994L71.0195 41.8779V48.3008Z" fill="#B09566"/>
<path d="M80.2217 72.2871L71.2617 87.2725L70.4648 86.8134V76.7861C70.7062 76.4002 70.9521 76.0054 71.2012 75.6006L77.501 65.3154L77.5039 65.3096L78.0615 64.3965C78.8991 63.0068 79.6168 61.7365 80.2217 60.584V72.2871Z" fill="#B09566"/>
<path d="M60.7461 75.7412V77.9395L48.5908 72.3887V70.1895L60.7461 75.7412Z" fill="#423C33"/>
<path d="M60.835 90.0234L60.833 90.0225L48.5908 84.3955V82.1943L60.7461 87.7812L60.835 90.0234Z" fill="#423C33"/>
<path d="M60.7461 77.9395V87.7812L48.5908 82.1943V72.3887L60.7461 77.9395Z" fill="#B09566"/>
<path d="M74.5 15.9258C83.8324 15.9258 91.9476 19.1036 98.7979 25.4395H98.7988C105.632 31.6751 110.855 40.6348 114.516 52.2393L114.854 53.3271C118.292 64.6327 120 78.024 120 93.4824C120 109.189 118.158 122.941 114.454 134.722L114.453 134.724C110.751 146.412 105.49 155.573 98.6289 162.142L98.627 162.145C91.778 168.655 83.678 171.926 74.375 171.926C65.0804 171.926 56.9843 168.746 50.1338 162.407L50.1309 162.405C43.3458 156.088 38.1452 147.133 34.4844 135.612L34.4834 135.61C30.8197 123.996 29 110.2 29 94.2422C29 78.5355 30.842 64.8252 34.5469 53.1279L34.5479 53.124C38.1745 41.8028 43.2248 32.8903 49.7383 26.4492L50.373 25.834C57.2182 19.242 65.2755 15.9258 74.5 15.9258ZM74.9375 21.6016C68.2735 21.6016 62.4336 24.4803 57.3848 30.3779L57.3828 30.3799C52.3497 36.2243 48.3822 44.558 45.5303 55.4531C42.7233 66.3357 41.3125 79.1771 41.3125 93.9893C41.3125 109.055 42.7446 122.02 45.5918 132.899C48.4441 143.714 52.3705 151.965 57.3213 157.726H57.3203C62.2508 163.379 67.8025 166.123 74 166.123C80.7538 166.123 86.6115 163.281 91.6123 157.477C96.6478 151.547 100.575 143.17 103.344 132.274V132.271C106.151 121.389 107.562 108.547 107.562 93.7354C107.562 78.6698 106.11 65.7481 103.222 54.9551L103.221 54.9521C100.368 44.1377 96.442 35.8867 91.4912 30.126L91.4893 30.123C86.5967 24.383 81.0869 21.6016 74.9375 21.6016Z" fill="#B09566" stroke="#423C33" stroke-width="2"/>
<path fill-rule="evenodd" clip-rule="evenodd" d="M120.63 105.289C120.417 108.583 120.112 111.781 119.714 114.883L106.038 108.598C106.271 105.455 106.426 102.202 106.504 98.8379L120.63 105.289Z" fill="#B09566"/>
<path fill-rule="evenodd" clip-rule="evenodd" d="M43.7461 70.1758C43.3515 73.1798 43.0376 76.2998 42.8057 79.5361L31.1377 74.1738C31.1504 74.0685 31.1638 73.9634 31.1768 73.8584C31.1638 73.9632 31.1494 74.0678 31.1367 74.1729L29.2305 73.2969C29.6232 70.1692 30.1106 67.1414 30.6924 64.2139L43.7461 70.1758Z" fill="#B09566"/>
<path fill-rule="evenodd" clip-rule="evenodd" d="M119.714 114.883C119.625 115.578 119.532 116.269 119.434 116.955L117.537 116.084C117.561 115.909 117.585 115.734 117.608 115.559C117.585 115.734 117.559 115.908 117.535 116.083L105.868 110.721C105.929 110.019 105.985 109.311 106.038 108.598L119.714 114.883Z" fill="#423C33"/>
<path d="M120.755 103.146C120.718 103.865 120.676 104.579 120.63 105.289L106.504 98.8379C106.521 98.1158 106.534 97.3886 106.543 96.6562L120.755 103.146Z" fill="#423C33"/>
<path fill-rule="evenodd" clip-rule="evenodd" d="M31.1367 74.1729C31.1176 74.3311 31.0997 74.4897 31.0811 74.6484C31.0997 74.49 31.1186 74.3318 31.1377 74.1738L42.8057 79.5361C42.755 80.2428 42.7089 80.9551 42.666 81.6729L28.9854 75.3848C29.0629 74.684 29.1437 73.9879 29.2305 73.2969L31.1367 74.1729Z" fill="#423C33"/>
<path fill-rule="evenodd" clip-rule="evenodd" d="M31.1094 62.2061L44.0332 68.1084C43.9332 68.7913 43.8374 69.4804 43.7461 70.1758L30.6924 64.2139C30.8265 63.5393 30.9652 62.87 31.1094 62.2061Z" fill="#423C33"/>
<path fill-rule="evenodd" clip-rule="evenodd" d="M80.2217 167.797C80.2217 169.56 80.2908 171.111 80.4277 172.449C78.4682 172.766 76.4504 172.926 74.375 172.926C72.965 172.926 71.5816 172.852 70.2246 172.709C70.2946 172.089 70.3495 171.425 70.3887 170.717C70.4384 169.816 70.4648 168.842 70.4648 167.797V164.793C71.6199 165.013 72.7979 165.123 74 165.123C76.1679 165.123 78.2406 164.816 80.2217 164.195V167.797Z" fill="#B09566"/>
<path fill-rule="evenodd" clip-rule="evenodd" d="M68.4648 164.292C69.1238 164.497 69.7901 164.664 70.4648 164.793V167.797L70.4512 169.104C70.439 169.664 70.4161 170.202 70.3877 170.716C70.3578 170.713 70.3278 170.71 70.2979 170.707C70.3275 170.71 70.3571 170.714 70.3867 170.717C70.3476 171.426 70.2926 172.089 70.2227 172.709C69.5561 172.639 68.8959 172.553 68.2422 172.448C68.3858 171.158 68.4648 169.614 68.4648 167.797V164.292Z" fill="#423C33"/>
<path fill-rule="evenodd" clip-rule="evenodd" d="M82.2217 167.797C82.2217 168.603 82.238 169.353 82.2666 170.05C82.1678 170.073 82.0689 170.095 81.9697 170.117C82.0687 170.095 82.168 170.075 82.2666 170.053C82.2967 170.784 82.3404 171.456 82.3994 172.07C81.7494 172.214 81.0931 172.341 80.4297 172.448C80.3283 171.457 80.2626 170.349 80.2363 169.124L80.2217 167.797V164.195C80.8992 163.983 81.5656 163.734 82.2217 163.447V167.797Z" fill="#423C33"/>
</svg>
