<svg width="211" height="90" viewBox="0 0 211 90" fill="none" xmlns="http://www.w3.org/2000/svg">
<path d="M50.432 89.8241L17.92 50.0161V89.8241H0V0.480103H17.92V40.5441L50.432 0.480103H72.064L35.2 44.7681L73.088 89.8241H50.432Z" fill="white"/>
<path d="M84.2105 22H73C73 17.641 73.9737 13.7949 75.9211 10.4615C77.9211 7.1282 80.6316 4.5641 84.0526 2.76923C87.4737 0.923077 91.2895 0 95.5 0C99.7105 0 103.526 0.923077 106.947 2.76923C110.368 4.5641 113.053 7.1282 115 10.4615C117 13.7949 118 17.641 118 22H106.632C106.632 17.9487 105.526 14.8461 103.316 12.6923C101.158 10.4872 98.5 9.38461 95.3421 9.38461C92.1842 9.38461 89.5263 10.4872 87.3684 12.6923C85.2632 14.8461 84.2105 17.9487 84.2105 22Z" fill="#99C0FF"/>
<path d="M84.2105 45H73C73 40.4429 73.9737 36.4219 75.9211 32.9371C77.9211 29.4522 80.6316 26.7716 84.0526 24.8951C87.4737 22.965 91.2895 22 95.5 22C99.7105 22 103.526 22.965 106.947 24.8951C110.368 26.7716 113.053 29.4522 115 32.9371C117 36.4219 118 40.4429 118 45H106.632C106.632 40.7646 105.526 37.521 103.316 35.2692C101.158 32.9639 98.5 31.8112 95.3421 31.8112C92.1842 31.8112 89.5263 32.9639 87.3684 35.2692C85.2632 37.521 84.2105 40.7646 84.2105 45Z" fill="#66A0FF"/>
<path d="M95.1842 90C90.9737 90 87.1842 89.0822 83.8158 87.2465C80.4474 85.3584 77.7895 82.7098 75.8421 79.3007C73.9474 75.8916 73 71.958 73 67.5C73 63.042 73.9737 59.1084 75.9211 55.6993C77.9211 52.2902 80.6316 49.6678 84.0526 47.8322C87.4737 45.9441 91.2895 45 95.5 45C99.7105 45 103.526 45.9441 106.947 47.8322C110.368 49.6678 113.053 52.2902 115 55.6993C117 59.1084 118 63.042 118 67.5C118 71.958 116.974 75.8916 114.921 79.3007C112.921 82.7098 110.184 85.3584 106.711 87.2465C103.289 89.0822 99.4474 90 95.1842 90ZM95.1842 80.4021C97.1842 80.4021 99.0526 79.9301 100.789 78.986C102.579 77.9895 104 76.521 105.053 74.5804C106.105 72.6399 106.632 70.2797 106.632 67.5C106.632 63.3566 105.526 60.1836 103.316 57.9808C101.158 55.7255 98.5 54.5979 95.3421 54.5979C92.1842 54.5979 89.5263 55.7255 87.3684 57.9808C85.2632 60.1836 84.2105 63.3566 84.2105 67.5C84.2105 71.6434 85.2368 74.8427 87.2895 77.0979C89.3947 79.3007 92.0263 80.4021 95.1842 80.4021Z" fill="#3380FF"/>
<path d="M95.1842 90C90.9737 90 87.1842 89.0822 83.8158 87.2465C80.4474 85.3584 77.7895 82.7098 75.8421 79.3007C73.9474 75.8916 73 71.958 73 67.5C73 63.042 73.9737 59.1084 75.9211 55.6993C77.9211 52.2902 80.6316 49.6678 84.0526 47.8322C87.4737 45.9441 91.2895 45 95.5 45C99.7105 45 103.526 45.9441 106.947 47.8322C110.368 49.6678 113.053 52.2902 115 55.6993C117 59.1084 118 63.042 118 67.5C118 71.958 116.974 75.8916 114.921 79.3007C112.921 82.7098 110.184 85.3584 106.711 87.2465C103.289 89.0822 99.4474 90 95.1842 90ZM95.1842 80.4021C97.1842 80.4021 99.0526 79.9301 100.789 78.986C102.579 77.9895 104 76.521 105.053 74.5804C106.105 72.6399 106.632 70.2797 106.632 67.5C106.632 63.3566 105.526 60.1836 103.316 57.9808C101.158 55.7255 98.5 54.5979 95.3421 54.5979C92.1842 54.5979 89.5263 55.7255 87.3684 57.9808C85.2632 60.1836 84.2105 63.3566 84.2105 67.5C84.2105 71.6434 85.2368 74.8427 87.2895 77.0979C89.3947 79.3007 92.0263 80.4021 95.1842 80.4021Z" fill="#3380FF"/>
<path d="M134 18.8265C131.132 18.8265 128.729 17.9464 126.791 16.1862C124.93 14.3495 124 12.0918 124 9.41327C124 6.73469 124.93 4.5153 126.791 2.7551C128.729 0.918367 131.132 0 134 0C136.868 0 139.233 0.918367 141.093 2.7551C143.031 4.5153 144 6.73469 144 9.41327C144 12.0918 143.031 14.3495 141.093 16.1862C139.233 17.9464 136.868 18.8265 134 18.8265ZM142.023 26.4031V90H125.744V26.4031H142.023Z" fill="white"/>
<path d="M185.159 25.5C192.718 25.5 198.825 27.9101 203.483 32.7304C208.14 37.4742 210.469 44.1308 210.469 52.7002V90H194.435V54.8808C194.435 49.831 193.176 45.9671 190.656 43.2892C188.137 40.5347 184.701 39.1575 180.349 39.1575C175.921 39.1575 172.409 40.5347 169.813 43.2892C167.293 45.9671 166.033 49.831 166.033 54.8808V90H150V26.4182H166.033V34.3372C168.171 31.5827 170.882 29.4404 174.165 27.9101C177.524 26.3034 181.189 25.5 185.159 25.5Z" fill="white"/>
</svg>
